<?xml version="1.0" encoding="UTF-8" standalone="no"?>
<svg
   xmlns:dc="http://purl.org/dc/elements/1.1/"
   xmlns:cc="http://creativecommons.org/ns#"
   xmlns:rdf="http://www.w3.org/1999/02/22-rdf-syntax-ns#"
   xmlns:svg="http://www.w3.org/2000/svg"
   xmlns="http://www.w3.org/2000/svg"
   xmlns:sodipodi="http://sodipodi.sourceforge.net/DTD/sodipodi-0.dtd"
   xmlns:inkscape="http://www.inkscape.org/namespaces/inkscape"
   version="1.0"
   width="826.8161pt"
   height="726.8974pt"
   viewBox="0 0 826.8161 726.8974"
   preserveAspectRatio="xMidYMid meet"
   id="svg2"
   inkscape:version="0.91 r13725"
   sodipodi:docname="docloop_bw.svg">
  <defs
     id="defs22" />
  <sodipodi:namedview
     pagecolor="#ffffff"
     bordercolor="#666666"
     borderopacity="1"
     objecttolerance="10"
     gridtolerance="10"
     guidetolerance="10"
     inkscape:pageopacity="0"
     inkscape:pageshadow="2"
     inkscape:window-width="1920"
     inkscape:window-height="1056"
     id="namedview20"
     showgrid="false"
     inkscape:zoom="0.55124964"
     inkscape:cx="373.669"
     inkscape:cy="440.78272"
     inkscape:window-x="0"
     inkscape:window-y="24"
     inkscape:window-maximized="1"
     inkscape:current-layer="svg2"
     fit-margin-top="1"
     fit-margin-left="1"
     fit-margin-right="1"
     fit-margin-bottom="1" />
  <metadata
     id="metadata4">
Created by potrace 1.15, written by Peter Selinger 2001-2017
<rdf:RDF>
  <cc:Work
     rdf:about="">
    <dc:format>image/svg+xml</dc:format>
    <dc:type
       rdf:resource="http://purl.org/dc/dcmitype/StillImage" />
    <dc:title></dc:title>
  </cc:Work>
</rdf:RDF>
</metadata>
  <g
     id="g4259"
     transform="translate(-325.0249,-164.73301)">
    <path
       d="m 548.70238,167.0477 c -4.8,1.8 -14,9.8 -17.2,14.9 -1.1,1.8 -5.4,10.7 -9.5,19.6 -16,34.9 -28.8,47.3 -57.5,55.7 -4.6,1.3 -11.9,1.6 -45.5,1.7 -33.3,0.1 -41.2,0.4 -47,1.7 -25.3,6 -35.9,17.1 -42.2,44.3 -2.3,10 -2.9,143.7 -0.8,158.7 1.6,11 5.3,23 8.9,28.6 5.5,8.7 16.4,15.6 30.2,19 18.5,4.6 27.6,5.2 90.4,5.2 61.2,0.1 70.9,-0.5 88.4,-5 26.7,-7 35.6,-21.7 38.1,-63 1,-16.3 -1.2,-79.3 -3.7,-104.8 -1.5,-16.1 -2.2,-29.9 -2.2,-47.7 l -0.1,-25 4.8,-23 c 7.1,-33.7 7.4,-50.5 1.2,-64.2 -2.8,-6.1 -9.4,-13.1 -15,-15.8 -5.2,-2.5 -15.6,-3 -21.3,-0.9 z m -71.7,149.4 c 26,6.7 44.3,24 51,48.5 2.5,9.3 3.1,28.5 1.1,36.5 -5.8,23 -21.8,42.1 -43.7,52.4 -10.1,4.8 -17.7,6.6 -27.9,6.6 -10.2,0 -17.8,-1.8 -27.9,-6.6 -21.7,-10.2 -37.8,-29.3 -43.6,-51.9 -7.3,-28.7 10.1,-63 40,-78.7 16.8,-8.8 34.1,-11.1 51,-6.8 z"
       id="path8"
       inkscape:connector-curvature="0"
       style="fill:#000000;stroke:none" />
    <path
       d="m 1042.5905,246.7193 c -19.2,2.3 -22.6,2.4 -53.50005,1.8 -35.00002,-0.6 -47.40002,0.1 -61.10002,3.6 -22.6,5.8 -32.3,17.8 -37.1,45.9 -1.3,8.2 -1.6,19.9 -1.6,79.6 0,50.3 0.3,72.2 1.2,78 5.1,33.1 15.9,43.8 49.1,48.5 4.4,0.6 23.8,1 46.5,0.9 32.90007,0 42.20007,0.3 59.40007,2 52.4,5.4 77.3,1 88.8,-15.7 3.1,-4.5 3.8,-6.3 4.1,-11.7 0.5,-7.5 -1.7,-13 -7.3,-18.8 -12.3,-12.7 -31.2,-15.3 -77,-10.7 -31.6,3.2 -44.5,2.1 -60.10005,-5 -27.30002,-12.3 -48.40002,-41.6 -48.40002,-67 0,-25.4 21.1,-54.7 48.40002,-67 15.60005,-7.1 28.50005,-8.2 60.10005,-5 45.8,4.6 64.7,2 77,-10.7 10.2,-10.5 10,-25.1 -0.5,-36.6 -5.2,-5.7 -11.9,-9.5 -21.5,-12.2 -10.4,-3 -41.5,-2.9 -66.5,0.1 z"
       id="path10"
       inkscape:connector-curvature="0"
       style="fill:#000000;stroke:none" />
    <path
       d="m 662.25769,253.28207 c -10.8,1.6 -22.7,5.6 -28.3,9.4 -12.4,8.5 -19.1,23.7 -21.3,48.5 -0.5,5.5 -0.8,39.5 -0.7,75.5 0.3,68.1 0.7,75.3 4.9,89.1 6.4,20.8 20.8,29.9 52.1,32.7 5.5,0.5 39.5,0.8 75.5,0.7 68.1,-0.3 75.3,-0.7 89.1,-4.9 15.7,-4.8 24.8,-14.5 29.2,-31.1 3.8,-14.2 4,-20.4 4,-92 0,-59.7 -0.3,-71.4 -1.6,-79.6 -5.5,-32.6 -18.4,-44.7 -52.2,-48.8 -12.4,-1.5 -139.9,-1.1 -150.7,0.5 z m 91.7,56.9 c 22.6,5.8 41.7,21.9 51.9,43.6 4.8,10.1 6.6,17.7 6.6,27.9 0,10.1 -1.8,17.8 -6.5,27.7 -8.5,18 -20.7,30.3 -38.6,38.7 -10.1,4.8 -17.7,6.6 -27.9,6.6 -10.2,0 -17.8,-1.8 -27.9,-6.6 -17.9,-8.4 -30.1,-20.7 -38.6,-38.7 -4.7,-9.9 -6.5,-17.6 -6.5,-27.7 0,-10.2 1.8,-17.8 6.6,-27.9 6.3,-13.4 15.3,-24.1 26.7,-31.9 6.3,-4.4 17.9,-9.8 24.7,-11.6 7.3,-1.9 22.1,-2 29.5,-0.1 z"
       id="path12"
       inkscape:connector-curvature="0"
       style="fill:#000000;stroke:none" />
    <path
       d="m 487.92998,541.6273 c -46,1.9 -64.4,11.6 -71.3,37.4 -3.8,14.2 -4,20.4 -4,92 0,75.8 0.3,80.4 5.6,96.2 3.5,10.1 9.3,18 16.9,22.9 5.5,3.5 17.4,7.2 28.5,8.9 19,2.9 87.7,1.2 127.8,-3.1 34.7,-3.7 62.3,-3.7 97,0 40.1,4.3 108.8,6 127.8,3.1 11.8,-1.8 23.5,-5.6 29.2,-9.5 12.4,-8.5 19.1,-23.7 21.3,-48.5 0.5,-5.5 0.8,-39.5 0.7,-75.5 -0.3,-68.1 -0.7,-75.3 -4.9,-89.1 -7,-22.6 -22.6,-31.1 -61.6,-33.4 -16.5,-1 -79.3,1.2 -104.8,3.7 -17.9,1.8 -29.2,2.2 -53.2,2.2 -28.8,0.1 -31.9,-0.1 -55.5,-3.3 -24.2,-3.2 -28.2,-3.4 -72.5,-4.4 -6.3,-0.1 -18.5,0.1 -27,0.4 z m 75.5,58.9 c 20.1,6.3 34,18.6 42.5,37.4 16.2,35.6 2.9,80.4 -28.7,96.8 -11.1,5.8 -19.3,7.9 -32.8,8.5 -13.9,0.6 -20.6,-0.7 -32.4,-6.3 -21.7,-10.2 -37.8,-29.3 -43.6,-51.9 -1.9,-7.6 -1.9,-21.4 0,-29 3.4,-13 12.6,-28.7 22.1,-37.5 9.3,-8.7 22.6,-16.2 34.4,-19.5 8.2,-2.2 29.2,-1.5 38.5,1.5 z m 191,-1.5 c 22.6,5.8 41.7,21.9 51.9,43.6 4.8,10.1 6.6,17.7 6.6,27.9 0,10.1 -1.8,17.8 -6.5,27.7 -8.5,18 -20.7,30.3 -38.6,38.7 -11.8,5.6 -18.5,6.9 -32.4,6.3 -13.5,-0.6 -21.7,-2.7 -32.8,-8.5 -31.6,-16.4 -44.9,-61.2 -28.7,-96.8 9.4,-20.9 25.6,-33.9 48.5,-38.9 8.4,-1.9 24.8,-1.8 32,0 z"
       id="path14"
       inkscape:connector-curvature="0"
       style="fill:#000000;stroke:none" />
    <path
       d="m 956.15364,541.30129 c -8.6,0.6 -21.7,2.7 -27.4,4.3 -24.1,6.9 -32.7,22 -35.1,62 -1,16.3 1.2,79.3 3.7,104.8 1.5,16.1 2.2,29.9 2.2,47.7 l 0.1,25 -4.8,23 c -8.8,41.5 -7.3,61 5.5,73.7 11.5,11.5 27.1,11.8 39.3,0.7 6.8,-6.3 7.9,-8 17,-28 16,-34.9 28.8,-47.3 57.49996,-55.7 4.6,-1.3 11.9,-1.6 45.5,-1.7 33.3,-0.1 41.2,-0.4 47,-1.7 25.3,-6 35.9,-17.1 42.2,-44.3 1.3,-6 1.6,-16.9 1.9,-77.5 0.3,-72.5 0,-80.2 -3.7,-94 -6.1,-22.5 -17.9,-32 -45.8,-36.6 -8.1,-1.4 -20.2,-1.7 -75.6,-1.8 -36.29996,0 -67.59996,0 -69.49996,0.1 z m 79.49996,55.8 c 11.9,3.1 25.3,10.6 34.9,19.5 9.5,8.8 18.7,24.5 22.1,37.5 7.4,28.9 -10.2,63.2 -40.5,78.9 -21.9,11.4 -44,11.6 -66.39996,0.6 -17.7,-8.6 -29.8,-23.3 -35.1,-42.5 -2.5,-9.3 -3.1,-28.5 -1.1,-36.5 3.4,-13.4 12.5,-29 22.2,-38 9.4,-8.7 22.8,-16.3 34.39996,-19.4 7.3,-1.9 22.1,-2 29.5,-0.1 z"
       id="path16"
       inkscape:connector-curvature="0"
       style="fill:#000000;stroke:none" />
    <path
       d="m 354.14483,550.72168 c -14.4,2.9 -23.5,14.3 -26.9,34 -2,11.4 -1.5,35.1 1.2,55.5 2.4,18.3 2.4,42.3 -0.1,61.5 -2.6,20.5 -2.7,50.4 -0.2,60.3 2.5,10.2 6.4,17.2 12.4,22.7 9.9,9.1 22.5,10.6 32.3,3.9 16.3,-11 21,-35.7 16.1,-84.1 -1.2,-11.3 -2.1,-26.5 -2.1,-33.8 0,-7.3 0.9,-22.5 2.1,-33.8 2.6,-26.2 2.2,-49.5 -1.1,-61.2 -3.7,-13.3 -12.2,-22.4 -23,-24.9 -5.1,-1.2 -5,-1.2 -10.7,-0.1 z"
       id="path18"
       inkscape:connector-curvature="0"
       style="fill:#000000;stroke:none" />
  </g>
</svg>
